<svg id="visual" viewBox="0 0 960 540" width="960" height="540" xmlns="http://www.w3.org/2000/svg" xmlns:xlink="http://www.w3.org/1999/xlink" version="1.1"><rect x="0" y="0" width="960" height="540" fill="#282725"></rect><path d="M0 424L20 428C40 432 80 440 120 446.8C160 453.7 200 459.3 240 453.8C280 448.3 320 431.7 360 429.3C400 427 440 439 480 442C520 445 560 439 600 439.8C640 440.7 680 448.3 720 443C760 437.7 800 419.3 840 413.2C880 407 920 413 940 416L960 419L960 541L940 541C920 541 880 541 840 541C800 541 760 541 720 541C680 541 640 541 600 541C560 541 520 541 480 541C440 541 400 541 360 541C320 541 280 541 240 541C200 541 160 541 120 541C80 541 40 541 20 541L0 541Z" fill="#f06000"></path><path d="M0 468L20 464.5C40 461 80 454 120 456.5C160 459 200 471 240 468.8C280 466.7 320 450.3 360 445.5C400 440.7 440 447.3 480 450.3C520 453.3 560 452.7 600 456.3C640 460 680 468 720 464.5C760 461 800 446 840 442.7C880 439.3 920 447.7 940 451.8L960 456L960 541L940 541C920 541 880 541 840 541C800 541 760 541 720 541C680 541 640 541 600 541C560 541 520 541 480 541C440 541 400 541 360 541C320 541 280 541 240 541C200 541 160 541 120 541C80 541 40 541 20 541L0 541Z" fill="#bf5007"></path><path d="M0 468L20 473.8C40 479.7 80 491.3 120 491.8C160 492.3 200 481.7 240 479.3C280 477 320 483 360 487.8C400 492.7 440 496.3 480 495C520 493.7 560 487.3 600 480.3C640 473.3 680 465.7 720 469C760 472.3 800 486.7 840 494.5C880 502.3 920 503.7 940 504.3L960 505L960 541L940 541C920 541 880 541 840 541C800 541 760 541 720 541C680 541 640 541 600 541C560 541 520 541 480 541C440 541 400 541 360 541C320 541 280 541 240 541C200 541 160 541 120 541C80 541 40 541 20 541L0 541Z" fill="#90400c"></path><path d="M0 509L20 510.8C40 512.7 80 516.3 120 513.8C160 511.3 200 502.7 240 500.5C280 498.3 320 502.7 360 504.2C400 505.7 440 504.3 480 502.8C520 501.3 560 499.7 600 502.3C640 505 680 512 720 516.5C760 521 800 523 840 520.8C880 518.7 920 512.3 940 509.2L960 506L960 541L940 541C920 541 880 541 840 541C800 541 760 541 720 541C680 541 640 541 600 541C560 541 520 541 480 541C440 541 400 541 360 541C320 541 280 541 240 541C200 541 160 541 120 541C80 541 40 541 20 541L0 541Z" fill="#642f0d"></path></svg>