<svg id="visual" viewBox="0 0 960 540" width="960" height="540" xmlns="http://www.w3.org/2000/svg" xmlns:xlink="http://www.w3.org/1999/xlink" version="1.1"><rect x="0" y="0" width="960" height="540" fill="#FFFFFF"></rect><defs><linearGradient id="grad1_0" x1="43.8%" y1="0%" x2="100%" y2="100%"><stop offset="14.444444444444446%" stop-color="#f06000" stop-opacity="1"></stop><stop offset="85.55555555555554%" stop-color="#f06000" stop-opacity="1"></stop></linearGradient></defs><defs><linearGradient id="grad1_1" x1="43.8%" y1="0%" x2="100%" y2="100%"><stop offset="14.444444444444446%" stop-color="#f06000" stop-opacity="1"></stop><stop offset="85.55555555555554%" stop-color="#ffb187" stop-opacity="1"></stop></linearGradient></defs><defs><linearGradient id="grad1_2" x1="43.8%" y1="0%" x2="100%" y2="100%"><stop offset="14.444444444444446%" stop-color="#ffffff" stop-opacity="1"></stop><stop offset="85.55555555555554%" stop-color="#ffb187" stop-opacity="1"></stop></linearGradient></defs><defs><linearGradient id="grad2_0" x1="0%" y1="0%" x2="56.3%" y2="100%"><stop offset="14.444444444444446%" stop-color="#f06000" stop-opacity="1"></stop><stop offset="85.55555555555554%" stop-color="#f06000" stop-opacity="1"></stop></linearGradient></defs><defs><linearGradient id="grad2_1" x1="0%" y1="0%" x2="56.3%" y2="100%"><stop offset="14.444444444444446%" stop-color="#ffb187" stop-opacity="1"></stop><stop offset="85.55555555555554%" stop-color="#f06000" stop-opacity="1"></stop></linearGradient></defs><defs><linearGradient id="grad2_2" x1="0%" y1="0%" x2="56.3%" y2="100%"><stop offset="14.444444444444446%" stop-color="#ffb187" stop-opacity="1"></stop><stop offset="85.55555555555554%" stop-color="#ffffff" stop-opacity="1"></stop></linearGradient></defs><g transform="translate(960, 0)"><path d="M0 297C-16.2 264.4 -32.4 231.8 -51.2 224.2C-69.9 216.6 -91.2 234.1 -116.7 242.4C-142.3 250.7 -172.1 249.9 -185.2 232.2C-198.3 214.5 -194.6 180 -193.9 154.6C-193.2 129.2 -195.5 113 -205.4 98.9C-215.4 84.9 -233 73.1 -249.6 57C-266.1 40.8 -281.6 20.4 -297 0L0 0Z" fill="#ffd8c2"></path><path d="M0 198C-10.8 176.3 -21.6 154.5 -34.1 149.5C-46.6 144.4 -60.8 156 -77.8 161.6C-94.8 167.1 -114.7 166.6 -123.5 154.8C-132.2 143 -129.7 120 -129.3 103.1C-128.8 86.2 -130.3 75.3 -136.9 66C-143.6 56.6 -155.4 48.7 -166.4 38C-177.4 27.2 -187.7 13.6 -198 0L0 0Z" fill="#fd8a4d"></path><path d="M0 99C-5.4 88.1 -10.8 77.3 -17.1 74.7C-23.3 72.2 -30.4 78 -38.9 80.8C-47.4 83.6 -57.4 83.3 -61.7 77.4C-66.1 71.5 -64.9 60 -64.6 51.5C-64.4 43.1 -65.2 37.7 -68.5 33C-71.8 28.3 -77.7 24.4 -83.2 19C-88.7 13.6 -93.9 6.8 -99 0L0 0Z" fill="#f06000"></path></g><g transform="translate(0, 540)"><path d="M0 -297C18.5 -285.2 37.1 -273.3 62.8 -274.9C88.4 -276.5 121.2 -291.6 128.9 -267.6C136.6 -243.6 119.2 -180.5 124.1 -155.6C129 -130.7 156.2 -144 180.6 -144C205 -144 226.6 -130.7 237 -114.1C247.3 -97.5 246.3 -77.6 254.5 -58.1C262.6 -38.5 279.8 -19.3 297 0L0 0Z" fill="#ffd8c2"></path><path d="M0 -198C12.4 -190.1 24.7 -182.2 41.8 -183.3C58.9 -184.4 80.8 -194.4 85.9 -178.4C91 -162.4 79.4 -120.3 82.7 -103.7C86 -87.1 104.1 -96 120.4 -96C136.7 -96 151.1 -87.1 158 -76.1C164.9 -65 164.2 -51.8 169.6 -38.7C175.1 -25.7 186.5 -12.8 198 0L0 0Z" fill="#fd8a4d"></path><path d="M0 -99C6.2 -95.1 12.4 -91.1 20.9 -91.6C29.5 -92.2 40.4 -97.2 43 -89.2C45.5 -81.2 39.7 -60.2 41.4 -51.9C43 -43.6 52.1 -48 60.2 -48C68.3 -48 75.5 -43.6 79 -38C82.4 -32.5 82.1 -25.9 84.8 -19.4C87.5 -12.8 93.3 -6.4 99 0L0 0Z" fill="#f06000"></path></g></svg>