<svg id="visual" viewBox="0 0 960 540" width="960" height="540" xmlns="http://www.w3.org/2000/svg" xmlns:xlink="http://www.w3.org/1999/xlink" version="1.1"><rect x="0" y="0" width="960" height="540" fill="#FFFFFF"></rect><defs><linearGradient id="grad1_0" x1="43.8%" y1="0%" x2="100%" y2="100%"><stop offset="14.444444444444446%" stop-color="#f06000" stop-opacity="1"></stop><stop offset="85.55555555555554%" stop-color="#f06000" stop-opacity="1"></stop></linearGradient></defs><defs><linearGradient id="grad1_1" x1="43.8%" y1="0%" x2="100%" y2="100%"><stop offset="14.444444444444446%" stop-color="#f06000" stop-opacity="1"></stop><stop offset="85.55555555555554%" stop-color="#ffffff" stop-opacity="1"></stop></linearGradient></defs><defs><linearGradient id="grad2_0" x1="0%" y1="0%" x2="56.3%" y2="100%"><stop offset="14.444444444444446%" stop-color="#f06000" stop-opacity="1"></stop><stop offset="85.55555555555554%" stop-color="#f06000" stop-opacity="1"></stop></linearGradient></defs><defs><linearGradient id="grad2_1" x1="0%" y1="0%" x2="56.3%" y2="100%"><stop offset="14.444444444444446%" stop-color="#ffffff" stop-opacity="1"></stop><stop offset="85.55555555555554%" stop-color="#f06000" stop-opacity="1"></stop></linearGradient></defs><g transform="translate(960, 0)"><path d="M0 297C-51.7 289.1 -103.5 281.2 -148.5 257.2C-193.5 233.2 -231.8 193.1 -255.5 147.5C-279.1 101.9 -288.1 51 -297 0L0 0Z" fill="#ffb187"></path><path d="M0 148.5C-25.9 144.6 -51.7 140.6 -74.2 128.6C-96.8 116.6 -115.9 96.5 -127.7 73.8C-139.6 51 -144 25.5 -148.5 0L0 0Z" fill="#f06000"></path></g><g transform="translate(0, 540)"><path d="M0 -297C29.4 -250.6 58.7 -204.3 107 -185.3C155.3 -166.4 222.4 -174.8 257.2 -148.5C292 -122.2 294.5 -61.1 297 0L0 0Z" fill="#ffb187"></path><path d="M0 -148.5C14.7 -125.3 29.4 -102.1 53.5 -92.7C77.6 -83.2 111.2 -87.4 128.6 -74.3C146 -61.1 147.3 -30.5 148.5 0L0 0Z" fill="#f06000"></path></g></svg>