<svg id="visual" viewBox="0 0 900 600" width="900" height="600" xmlns="http://www.w3.org/2000/svg" xmlns:xlink="http://www.w3.org/1999/xlink" version="1.1"><rect width="900" height="600" fill="#FFFFFF"></rect><g><g transform="translate(626 385)"><path d="M19.5 -23.5C24.6 -18.9 27.8 -12.2 28.6 -5.4C29.5 1.5 28 8.4 24.8 14.7C21.6 20.9 16.6 26.5 10.5 28.8C4.3 31.2 -3.2 30.2 -9.6 27.4C-16 24.6 -21.4 20 -25.1 14.2C-28.8 8.4 -30.7 1.3 -29.9 -5.6C-29.1 -12.5 -25.5 -19.3 -20 -23.8C-14.6 -28.4 -7.3 -30.8 -0.1 -30.7C7.2 -30.7 14.3 -28.1 19.5 -23.5Z" fill="#F06000"></path></g><g transform="translate(881 67)"><path d="M6.5 -7.6C8.2 -6.2 9.4 -4 9.6 -1.8C9.9 0.4 9.2 2.7 8.1 4.6C6.9 6.6 5.3 8.3 3.3 9C1.2 9.8 -1.1 9.7 -3.2 8.9C-5.4 8.2 -7.2 6.7 -8.4 4.8C-9.6 2.9 -10 0.5 -9.6 -1.6C-9.1 -3.8 -7.7 -5.7 -6 -7C-4.2 -8.4 -2.1 -9.2 0.1 -9.4C2.4 -9.5 4.7 -9 6.5 -7.6Z" fill="#F06000"></path></g><g transform="translate(156 282)"><path d="M15.1 -17.7C19.7 -14.2 23.5 -9.5 24.6 -4.2C25.7 1.1 24.2 7.1 21.2 12.2C18.2 17.3 13.8 21.5 8.5 23.5C3.2 25.4 -2.9 25.1 -8.5 23.1C-14.1 21.1 -19.1 17.5 -22 12.6C-24.9 7.7 -25.7 1.5 -24.6 -4.3C-23.5 -10 -20.5 -15.4 -16 -18.9C-11.6 -22.3 -5.8 -23.9 -0.3 -23.6C5.3 -23.3 10.6 -21.1 15.1 -17.7Z" fill="#F06000"></path></g><g transform="translate(678 442)"><path d="M5.2 -6.1C6.6 -4.9 7.7 -3.2 8 -1.4C8.3 0.4 7.9 2.4 6.9 3.9C5.9 5.5 4.4 6.7 2.7 7.2C1 7.7 -0.9 7.6 -2.6 7.1C-4.4 6.5 -6 5.5 -6.9 4C-7.7 2.5 -7.9 0.5 -7.4 -1.2C-7 -3 -6.1 -4.5 -4.8 -5.7C-3.4 -6.9 -1.7 -7.8 0.1 -7.8C1.9 -7.9 3.7 -7.3 5.2 -6.1Z" fill="#F06000"></path></g><g transform="translate(63 34)"><path d="M2.3 -2.7C2.8 -2.2 3.2 -1.4 3.3 -0.6C3.4 0.2 3.3 1 2.9 1.7C2.6 2.4 2 3.1 1.2 3.3C0.5 3.6 -0.4 3.4 -1.1 3.1C-1.9 2.9 -2.6 2.4 -3.1 1.7C-3.5 1.1 -3.7 0.2 -3.5 -0.6C-3.4 -1.4 -2.9 -2.2 -2.3 -2.7C-1.7 -3.2 -0.8 -3.3 0 -3.4C0.8 -3.4 1.7 -3.2 2.3 -2.7Z" fill="#F06000"></path></g><g transform="translate(819 253)"><path d="M9.4 -11C12.1 -8.9 14.3 -5.9 14.9 -2.6C15.6 0.8 14.9 4.5 13.1 7.5C11.3 10.5 8.4 12.9 5.2 13.9C2 15 -1.6 14.7 -5 13.5C-8.3 12.4 -11.3 10.3 -13 7.5C-14.6 4.7 -14.9 1 -14.2 -2.5C-13.5 -5.9 -12 -9.1 -9.4 -11.3C-6.9 -13.4 -3.5 -14.5 -0.1 -14.4C3.3 -14.3 6.7 -13.1 9.4 -11Z" fill="#F06000"></path></g><g transform="translate(339 306)"><path d="M5 -5.9C6.3 -4.8 7.2 -3.1 7.5 -1.3C7.8 0.5 7.5 2.3 6.7 3.9C5.8 5.5 4.4 6.8 2.7 7.4C1 8.1 -1 8.2 -2.7 7.5C-4.3 6.8 -5.7 5.5 -6.6 3.8C-7.5 2.2 -8 0.4 -7.7 -1.4C-7.4 -3.1 -6.4 -4.8 -5 -5.9C-3.6 -7 -1.8 -7.5 0 -7.6C1.8 -7.6 3.6 -7 5 -5.9Z" fill="#F06000"></path></g><g transform="translate(389 489)"><path d="M11.3 -13.4C14.6 -10.6 17.4 -7.1 18.3 -3.1C19.1 0.9 18.1 5.4 15.8 8.9C13.6 12.5 10 15.1 6 16.7C1.9 18.3 -2.6 18.9 -6.6 17.6C-10.6 16.4 -14.1 13.3 -16.2 9.4C-18.4 5.6 -19.1 1.1 -18.3 -3.1C-17.4 -7.3 -15 -11.1 -11.7 -13.9C-8.4 -16.7 -4.2 -18.5 -0.1 -18.4C4 -18.2 7.9 -16.2 11.3 -13.4Z" fill="#F06000"></path></g><g transform="translate(406 586)"><path d="M15.9 -18.9C20.2 -15.2 23.2 -9.9 24.3 -4.2C25.4 1.5 24.6 7.6 21.9 13C19.2 18.4 14.7 23.1 9.1 25.2C3.5 27.3 -3 26.8 -8.8 24.6C-14.5 22.3 -19.4 18.1 -22.4 12.9C-25.5 7.7 -26.6 1.4 -25.4 -4.3C-24.2 -10.1 -20.7 -15.2 -16.1 -18.9C-11.4 -22.5 -5.7 -24.6 0 -24.6C5.7 -24.6 11.5 -22.6 15.9 -18.9Z" fill="#F06000"></path></g><g transform="translate(814 540)"><path d="M7.5 -9C9.4 -7.3 10.5 -4.7 11 -1.9C11.5 0.8 11.4 3.6 10.1 5.9C8.9 8.1 6.5 9.8 3.9 10.6C1.4 11.5 -1.4 11.5 -3.9 10.7C-6.4 9.8 -8.7 8 -9.9 5.8C-11.1 3.5 -11.3 0.7 -10.8 -1.9C-10.3 -4.5 -9 -6.9 -7.1 -8.6C-5.2 -10.3 -2.6 -11.3 0.1 -11.4C2.8 -11.5 5.5 -10.7 7.5 -9Z" fill="#F06000"></path></g><g transform="translate(451 36)"><path d="M9.9 -11.6C12.5 -9.6 14.1 -6.2 14.7 -2.6C15.3 1 15 4.7 13.3 7.8C11.6 10.8 8.7 13.2 5.3 14.3C2 15.3 -1.6 14.9 -4.8 13.6C-7.9 12.2 -10.4 9.9 -12 7C-13.6 4.1 -14.3 0.7 -13.7 -2.4C-13.2 -5.6 -11.4 -8.5 -8.9 -10.6C-6.4 -12.6 -3.2 -13.8 0.2 -14C3.6 -14.3 7.3 -13.6 9.9 -11.6Z" fill="#F06000"></path></g><g transform="translate(11 195)"><path d="M10.7 -12.8C13.8 -10.2 16.2 -6.7 16.9 -2.9C17.6 0.9 16.7 5 14.7 8.4C12.6 11.8 9.4 14.4 5.7 15.9C1.9 17.4 -2.3 17.8 -5.9 16.4C-9.5 15 -12.3 11.9 -14.2 8.4C-16 4.8 -16.8 0.9 -16.1 -2.9C-15.5 -6.6 -13.4 -10.1 -10.5 -12.7C-7.6 -15.4 -3.8 -17.2 0 -17.2C3.8 -17.2 7.6 -15.4 10.7 -12.8Z" fill="#F06000"></path></g><g transform="translate(701 336)"><path d="M14.1 -16.6C17.9 -13.6 20.5 -8.8 21.2 -3.9C22 1.1 20.9 6.3 18.3 10.4C15.7 14.6 11.7 17.7 7.1 19.3C2.5 20.8 -2.5 20.8 -7.3 19.4C-12.2 18 -16.9 15.2 -19.4 11.1C-21.9 6.9 -22.4 1.5 -21.3 -3.6C-20.2 -8.6 -17.5 -13.2 -13.7 -16.2C-9.9 -19.2 -5 -20.7 0.1 -20.7C5.1 -20.8 10.3 -19.6 14.1 -16.6Z" fill="#F06000"></path></g><g transform="translate(505 82)"><path d="M14.3 -16.9C18.2 -13.7 21 -8.9 22.1 -3.8C23.2 1.4 22.5 7 20 11.8C17.5 16.6 13.2 20.6 8.3 22.2C3.3 23.9 -2.4 23.1 -7.5 21.1C-12.7 19 -17.2 15.8 -20 11.3C-22.8 6.9 -23.8 1.3 -23.1 -4.3C-22.3 -9.8 -19.8 -15.2 -15.6 -18.4C-11.5 -21.6 -5.7 -22.7 -0.3 -22.3C5.1 -22 10.3 -20.2 14.3 -16.9Z" fill="#F06000"></path></g><g transform="translate(396 207)"><path d="M8.7 -10.1C11.2 -8.3 12.9 -5.5 13.3 -2.5C13.7 0.5 12.7 3.6 11 6.1C9.3 8.7 6.9 10.7 4.2 11.8C1.4 13 -1.8 13.3 -4.5 12.3C-7.2 11.4 -9.5 9.1 -11 6.4C-12.6 3.7 -13.5 0.6 -13.1 -2.4C-12.7 -5.4 -11 -8.3 -8.6 -10.1C-6.2 -11.9 -3.1 -12.6 0 -12.6C3.1 -12.7 6.3 -11.9 8.7 -10.1Z" fill="#F06000"></path></g><g transform="translate(6 434)"><path d="M17.6 -21.4C22.4 -17 25.6 -11 26.6 -4.8C27.6 1.5 26.5 8 23.4 13.7C20.4 19.4 15.5 24.3 9.7 26.3C3.8 28.4 -3 27.7 -9.1 25.3C-15.2 22.9 -20.6 19 -23.6 13.6C-26.6 8.3 -27.4 1.7 -26.1 -4.5C-24.9 -10.6 -21.7 -16.3 -17 -20.7C-12.3 -25.1 -6.2 -28.3 0.1 -28.4C6.4 -28.6 12.8 -25.7 17.6 -21.4Z" fill="#F06000"></path></g><g transform="translate(204 434)"><path d="M11.1 -13C14.1 -10.6 16.3 -6.9 16.8 -3.1C17.2 0.7 16 4.6 14 8C11.9 11.4 9.1 14.3 5.6 15.7C2.1 17.2 -2.1 17.2 -5.6 15.8C-9.1 14.4 -11.9 11.4 -13.7 8.1C-15.5 4.7 -16.2 0.8 -15.6 -2.7C-14.9 -6.2 -12.8 -9.5 -10 -12C-7.1 -14.4 -3.6 -16.1 0.2 -16.3C4 -16.6 8 -15.4 11.1 -13Z" fill="#F06000"></path></g><g transform="translate(307 381)"><path d="M9.6 -11.3C12.2 -9.2 13.9 -6 14.3 -2.7C14.7 0.7 13.8 4.1 12.2 7.2C10.6 10.3 8.2 13.1 5.1 14.5C2 15.8 -1.8 15.7 -5.1 14.4C-8.4 13 -11.2 10.5 -12.8 7.5C-14.4 4.4 -14.9 0.9 -14.2 -2.4C-13.5 -5.7 -11.7 -8.7 -9.1 -10.7C-6.5 -12.8 -3.3 -13.9 0.1 -14.1C3.5 -14.2 6.9 -13.3 9.6 -11.3Z" fill="#F06000"></path></g><g transform="translate(605 15)"><path d="M8.5 -10.4C10.9 -8.2 12.6 -5.3 13.3 -2.2C14 0.9 13.7 4.3 12.1 7C10.6 9.6 7.7 11.4 4.6 12.5C1.5 13.6 -1.9 14 -4.8 13C-7.7 12 -10.2 9.7 -11.9 6.9C-13.5 4 -14.3 0.7 -13.8 -2.6C-13.4 -5.8 -11.8 -8.9 -9.3 -11.2C-6.8 -13.4 -3.4 -14.6 -0.2 -14.5C3.1 -14.3 6.1 -12.6 8.5 -10.4Z" fill="#F06000"></path></g><g transform="translate(1 358)"><path d="M11.4 -13.2C14.7 -10.8 17.4 -7.1 18.2 -3.1C19 0.9 18 5.3 15.8 9.1C13.6 12.8 10.2 15.8 6.3 17.3C2.3 18.7 -2.2 18.6 -6.3 17.2C-10.5 15.8 -14.3 13.1 -16.3 9.5C-18.2 5.9 -18.2 1.3 -17.2 -2.8C-16.2 -6.9 -14.1 -10.6 -11.1 -13.2C-8 -15.7 -4 -17.1 0 -17.1C4 -17.1 8 -15.7 11.4 -13.2Z" fill="#F06000"></path></g><g transform="translate(871 382)"><path d="M3.4 -4C4.4 -3.3 5.1 -2.1 5.2 -1C5.4 0.2 5 1.4 4.3 2.4C3.7 3.4 2.7 4.2 1.6 4.7C0.5 5.1 -0.7 5.3 -1.8 5C-2.9 4.6 -3.9 3.7 -4.4 2.6C-5 1.5 -5.2 0.3 -5 -0.9C-4.8 -2.1 -4.3 -3.3 -3.4 -4C-2.5 -4.8 -1.3 -5 0 -5C1.2 -5 2.4 -4.7 3.4 -4Z" fill="#F06000"></path></g><g transform="translate(784 76)"><path d="M11.9 -14.4C15.2 -11.4 17.7 -7.5 18.6 -3.1C19.5 1.2 19 5.9 16.9 9.8C14.7 13.7 10.9 16.7 6.7 18.2C2.4 19.7 -2.4 19.7 -6.5 18.1C-10.7 16.6 -14.1 13.4 -16.5 9.4C-18.8 5.5 -20.1 0.9 -19.3 -3.4C-18.5 -7.7 -15.8 -11.6 -12.2 -14.6C-8.7 -17.6 -4.3 -19.7 0 -19.7C4.3 -19.6 8.6 -17.5 11.9 -14.4Z" fill="#F06000"></path></g><g transform="translate(144 569)"><path d="M12.4 -14.7C15.7 -12 17.6 -7.8 18.5 -3.2C19.4 1.3 19.1 6.1 17.1 10.1C15.1 14 11.2 17.1 6.9 18.5C2.5 19.9 -2.3 19.7 -6.7 18.2C-11.1 16.7 -15.1 13.8 -17.2 10C-19.3 6.2 -19.6 1.3 -18.6 -3C-17.5 -7.4 -15.1 -11.2 -11.8 -13.9C-8.4 -16.6 -4.2 -18.1 0.2 -18.3C4.6 -18.5 9.1 -17.4 12.4 -14.7Z" fill="#F06000"></path></g><g transform="translate(326 181)"><path d="M7.4 -8.8C9.5 -7.1 11.1 -4.6 11.6 -2C12.1 0.6 11.5 3.5 10.1 5.7C8.6 8 6.4 9.6 3.8 10.6C1.3 11.6 -1.5 11.8 -4.1 11C-6.7 10.2 -8.9 8.3 -10.2 6C-11.5 3.6 -11.7 0.8 -11.2 -1.9C-10.6 -4.6 -9.3 -7.1 -7.3 -8.8C-5.3 -10.6 -2.7 -11.7 0 -11.6C2.7 -11.6 5.3 -10.6 7.4 -8.8Z" fill="#F06000"></path></g><g transform="translate(592 229)"><path d="M4.8 -5.8C6.2 -4.6 7.4 -3 7.7 -1.3C8 0.4 7.6 2.2 6.6 3.7C5.7 5.3 4.2 6.4 2.6 7C0.9 7.5 -0.9 7.5 -2.6 6.9C-4.3 6.4 -5.9 5.4 -6.8 3.9C-7.8 2.4 -8 0.5 -7.7 -1.3C-7.3 -3.1 -6.4 -4.8 -5 -6.1C-3.7 -7.3 -1.8 -8.1 -0.1 -8C1.7 -7.9 3.4 -7 4.8 -5.8Z" fill="#F06000"></path></g><g transform="translate(30 583)"><path d="M2.7 -3.2C3.5 -2.5 4.2 -1.7 4.4 -0.7C4.6 0.2 4.4 1.3 3.8 2.1C3.2 2.9 2.4 3.5 1.4 3.9C0.4 4.3 -0.6 4.5 -1.6 4.2C-2.5 3.9 -3.4 3.2 -3.9 2.2C-4.4 1.3 -4.7 0.2 -4.5 -0.8C-4.3 -1.8 -3.7 -2.7 -2.9 -3.3C-2 -4 -1 -4.3 0 -4.3C0.9 -4.2 1.9 -3.8 2.7 -3.2Z" fill="#F06000"></path></g><g transform="translate(706 37)"><path d="M7.1 -8.4C9.1 -6.8 10.6 -4.5 11 -2C11.4 0.5 10.7 3.1 9.3 5.3C8 7.5 6 9.3 3.7 10.1C1.3 11 -1.4 11.1 -3.7 10.2C-6.1 9.4 -8.1 7.6 -9.5 5.4C-10.9 3.1 -11.8 0.4 -11.4 -2.1C-11.1 -4.7 -9.5 -7.1 -7.4 -8.6C-5.3 -10.2 -2.7 -10.8 0 -10.8C2.6 -10.7 5.1 -9.9 7.1 -8.4Z" fill="#F06000"></path></g><g transform="translate(230 115)"><path d="M5.9 -7.2C7.5 -5.7 8.5 -3.7 9 -1.5C9.5 0.6 9.3 3 8.3 4.8C7.3 6.7 5.3 8 3.2 8.7C1.1 9.4 -1.2 9.5 -3.3 8.8C-5.4 8.2 -7.4 6.8 -8.5 4.9C-9.6 3 -9.9 0.6 -9.3 -1.5C-8.8 -3.7 -7.5 -5.6 -5.9 -7C-4.2 -8.5 -2.1 -9.5 0 -9.5C2.1 -9.6 4.3 -8.6 5.9 -7.2Z" fill="#F06000"></path></g><g transform="translate(714 564)"><path d="M13.2 -15.7C17.2 -12.5 20.4 -8.3 21.4 -3.6C22.4 1.1 21.2 6.3 18.6 10.7C16 15 12 18.4 7.3 20C2.6 21.7 -2.6 21.8 -7 19.9C-11.4 18 -14.8 14.3 -17.2 10C-19.6 5.7 -20.9 0.9 -20.4 -3.9C-19.9 -8.6 -17.5 -13.3 -13.8 -16.5C-10.1 -19.7 -5 -21.4 -0.2 -21.2C4.7 -21 9.3 -18.8 13.2 -15.7Z" fill="#F06000"></path></g><g transform="translate(66 116)"><path d="M2.7 -3.2C3.5 -2.6 4.1 -1.7 4.3 -0.7C4.5 0.2 4.2 1.3 3.7 2.2C3.2 3 2.4 3.8 1.5 4.1C0.6 4.4 -0.5 4.3 -1.4 3.9C-2.4 3.6 -3.2 3 -3.8 2.1C-4.3 1.3 -4.6 0.2 -4.4 -0.7C-4.2 -1.7 -3.5 -2.6 -2.7 -3.2C-1.9 -3.8 -1 -4.3 0 -4.3C1 -4.3 1.9 -3.8 2.7 -3.2Z" fill="#F06000"></path></g><g transform="translate(191 503)"><path d="M6.4 -7.7C8.1 -6.1 9.3 -4 9.7 -1.7C10.1 0.6 9.8 3 8.6 4.8C7.4 6.6 5.3 7.9 3.2 8.5C1.1 9.2 -1.2 9.4 -3.2 8.7C-5.1 8 -6.8 6.4 -7.9 4.5C-9.1 2.7 -9.7 0.4 -9.4 -1.7C-9.1 -3.9 -7.9 -6 -6.2 -7.5C-4.5 -9 -2.2 -10 0 -10.1C2.3 -10.1 4.6 -9.2 6.4 -7.7Z" fill="#F06000"></path></g><g transform="translate(447 428)"><path d="M8.8 -10.7C11.1 -8.5 12.7 -5.5 13.2 -2.4C13.8 0.8 13.3 4.1 11.8 7C10.3 9.9 7.9 12.4 4.9 13.3C2 14.3 -1.4 13.8 -4.6 12.6C-7.8 11.5 -10.7 9.7 -12.2 7C-13.8 4.4 -13.9 1 -13.2 -2.2C-12.5 -5.4 -10.9 -8.3 -8.6 -10.5C-6.2 -12.8 -3.1 -14.4 0 -14.4C3.2 -14.5 6.4 -13 8.8 -10.7Z" fill="#F06000"></path></g><g transform="translate(304 530)"><path d="M10.3 -12.4C13 -10.1 14.4 -6.4 14.9 -2.7C15.4 1 15 4.7 13.4 8C11.8 11.2 9 14 5.5 15.3C2.1 16.6 -1.9 16.4 -5.4 15C-8.9 13.6 -11.9 11.1 -13.8 7.9C-15.7 4.7 -16.5 0.8 -15.9 -2.8C-15.2 -6.3 -13 -9.6 -10.1 -11.9C-7.2 -14.2 -3.6 -15.4 0.1 -15.6C3.8 -15.7 7.7 -14.7 10.3 -12.4Z" fill="#F06000"></path></g><g transform="translate(859 179)"><path d="M5.9 -6.9C7.7 -5.6 9.2 -3.7 9.6 -1.6C10 0.4 9.4 2.7 8.2 4.8C7.1 6.8 5.4 8.5 3.4 9.2C1.4 9.8 -1 9.5 -3 8.6C-5.1 7.7 -6.9 6.3 -8 4.5C-9.1 2.7 -9.7 0.5 -9.3 -1.6C-8.9 -3.8 -7.7 -5.7 -6 -7C-4.3 -8.4 -2.2 -9 0 -9C2.1 -8.9 4.1 -8.2 5.9 -6.9Z" fill="#F06000"></path></g><g transform="translate(474 550)"><path d="M16.2 -19.5C20.5 -15.6 23.3 -10.1 24.1 -4.5C24.8 1.2 23.4 7 20.6 12C17.9 17.1 13.6 21.5 8.4 23.8C3.1 26 -3.2 26.1 -8.6 24C-13.9 21.9 -18.3 17.5 -21 12.4C-23.6 7.3 -24.4 1.4 -23.7 -4.4C-23 -10.3 -20.7 -16.2 -16.5 -20.1C-12.3 -23.9 -6.2 -25.8 -0.1 -25.7C5.9 -25.5 11.8 -23.3 16.2 -19.5Z" fill="#F06000"></path></g><g transform="translate(370 411)"><path d="M16.8 -19.8C21.3 -16.3 24 -10.5 24.9 -4.5C25.9 1.6 25.2 7.9 22.3 12.8C19.4 17.8 14.3 21.4 8.6 23.5C2.9 25.5 -3.4 26 -9 24.2C-14.6 22.4 -19.7 18.3 -22.5 13.1C-25.3 8 -25.9 1.6 -24.8 -4.3C-23.6 -10.2 -20.7 -15.7 -16.3 -19.2C-11.9 -22.7 -5.9 -24.2 0.1 -24.4C6.2 -24.5 12.4 -23.3 16.8 -19.8Z" fill="#F06000"></path></g><g transform="translate(722 266)"><path d="M16.1 -19.2C20.5 -15.6 23.4 -10.1 24.3 -4.3C25.3 1.4 24.4 7.5 21.6 12.8C18.9 18.1 14.4 22.6 8.9 24.9C3.3 27.1 -3.3 27.1 -8.8 24.8C-14.3 22.5 -18.7 17.9 -21.4 12.6C-24.1 7.4 -25.1 1.4 -24.2 -4.3C-23.3 -10.1 -20.4 -15.5 -16.1 -19.2C-11.7 -22.8 -5.9 -24.7 0 -24.7C5.9 -24.7 11.8 -22.9 16.1 -19.2Z" fill="#F06000"></path></g><g transform="translate(132 21)"><path d="M16.6 -19.7C21 -16 23.9 -10.4 25.2 -4.3C26.4 1.8 26.1 8.4 23.2 13.5C20.4 18.6 14.9 22.4 9.1 24.1C3.3 25.8 -2.9 25.4 -8.6 23.4C-14.2 21.4 -19.3 17.7 -22.5 12.7C-25.8 7.7 -27.1 1.3 -26 -4.5C-24.9 -10.4 -21.3 -15.7 -16.6 -19.4C-11.8 -23 -5.9 -24.9 0.1 -25C6.1 -25 12.1 -23.3 16.6 -19.7Z" fill="#F06000"></path></g><g transform="translate(201 363)"><path d="M13.8 -16.4C17.6 -13.3 20.1 -8.6 20.9 -3.8C21.6 1.1 20.5 6.2 18.1 10.7C15.8 15.2 12.1 19.2 7.6 20.9C3.1 22.6 -2.3 21.9 -7.1 20C-11.9 18.1 -16.1 14.9 -18.6 10.7C-21 6.5 -21.8 1.2 -20.9 -3.6C-19.9 -8.4 -17.3 -12.9 -13.5 -16C-9.7 -19.2 -4.9 -21 0.1 -21.1C5 -21.2 10 -19.5 13.8 -16.4Z" fill="#F06000"></path></g><g transform="translate(419 337)"><path d="M13 -15.4C16.8 -12.4 19.5 -8.2 20.4 -3.6C21.2 1.1 20.1 6 17.6 10C15.1 13.9 11.1 16.8 6.7 18.4C2.3 20 -2.6 20.3 -6.9 18.8C-11.1 17.3 -14.7 13.9 -17.1 9.8C-19.6 5.7 -20.8 0.9 -20.2 -3.7C-19.6 -8.4 -17 -12.8 -13.3 -15.7C-9.7 -18.7 -4.8 -20.1 -0.1 -20C4.7 -19.9 9.3 -18.3 13 -15.4Z" fill="#F06000"></path></g><g transform="translate(470 211)"><path d="M14.7 -17.8C18.7 -14.1 21.5 -9.2 22.4 -3.9C23.4 1.3 22.6 7 20.1 11.7C17.5 16.5 13.2 20.4 8.1 22.1C3.1 23.9 -2.6 23.4 -7.6 21.4C-12.6 19.4 -16.8 15.8 -19.8 11.2C-22.8 6.6 -24.6 1 -23.7 -4.3C-22.9 -9.5 -19.5 -14.3 -15.1 -18C-10.7 -21.7 -5.4 -24.2 0 -24.2C5.3 -24.2 10.6 -21.6 14.7 -17.8Z" fill="#F06000"></path></g><g transform="translate(64 521)"><path d="M2.2 -2.6C2.8 -2.1 3.3 -1.4 3.4 -0.6C3.6 0.2 3.5 1.1 3.1 1.8C2.7 2.5 2 2.9 1.2 3.2C0.4 3.4 -0.4 3.4 -1.2 3.2C-1.9 2.9 -2.5 2.3 -2.9 1.6C-3.4 1 -3.6 0.1 -3.5 -0.6C-3.4 -1.4 -2.9 -2.1 -2.2 -2.6C-1.6 -3.1 -0.8 -3.3 0 -3.3C0.8 -3.4 1.6 -3.1 2.2 -2.6Z" fill="#F06000"></path></g><g transform="translate(627 496)"><path d="M11.4 -13.8C14.3 -11.1 16 -7.1 16.7 -3C17.4 1.2 17.2 5.5 15.3 8.9C13.4 12.3 9.9 14.9 6 16C2.2 17.2 -1.9 16.9 -5.6 15.5C-9.2 14.1 -12.3 11.5 -14.5 8.2C-16.6 4.9 -17.8 0.8 -17.1 -3C-16.5 -6.8 -14 -10.3 -10.9 -12.9C-7.7 -15.6 -3.8 -17.4 0.2 -17.6C4.2 -17.8 8.4 -16.4 11.4 -13.8Z" fill="#F06000"></path></g><g transform="translate(555 454)"><path d="M2.7 -3.2C3.4 -2.6 4 -1.7 4.1 -0.7C4.3 0.2 4.1 1.3 3.6 2.1C3.1 2.9 2.3 3.5 1.4 3.9C0.4 4.3 -0.6 4.4 -1.5 4.1C-2.4 3.8 -3.1 3 -3.6 2.1C-4.1 1.2 -4.3 0.2 -4.1 -0.7C-4 -1.7 -3.4 -2.6 -2.7 -3.2C-1.9 -3.8 -1 -4.2 0 -4.3C1 -4.3 1.9 -3.9 2.7 -3.2Z" fill="#F06000"></path></g><g transform="translate(224 223)"><path d="M11.9 -14.3C15.2 -11.5 17.3 -7.5 18.2 -3.1C19.1 1.3 18.8 6 16.8 9.9C14.8 13.9 11.1 17 6.7 18.7C2.4 20.3 -2.6 20.5 -6.9 18.9C-11.2 17.3 -14.9 14 -17 10C-19.1 6 -19.5 1.2 -18.7 -3.3C-17.8 -7.7 -15.7 -12 -12.4 -14.8C-9.1 -17.6 -4.5 -18.9 -0.1 -18.8C4.3 -18.7 8.7 -17.1 11.9 -14.3Z" fill="#F06000"></path></g><g transform="translate(368 56)"><path d="M9 -10.8C11.6 -8.6 13.4 -5.7 14.1 -2.4C14.8 0.8 14.3 4.4 12.6 7.3C10.9 10.2 8.1 12.4 5 13.3C1.9 14.2 -1.4 13.7 -4.5 12.5C-7.5 11.3 -10.1 9.3 -11.7 6.7C-13.2 4 -13.8 0.8 -13.3 -2.4C-12.8 -5.5 -11.2 -8.5 -8.8 -10.7C-6.4 -12.9 -3.2 -14.4 0 -14.5C3.2 -14.5 6.5 -13 9 -10.8Z" fill="#F06000"></path></g><g transform="translate(796 428)"><path d="M3.8 -4.6C4.9 -3.6 5.8 -2.4 6.1 -1C6.3 0.3 6.1 1.8 5.3 3.1C4.6 4.3 3.4 5.2 2.1 5.7C0.7 6.1 -0.7 6.1 -2.1 5.7C-3.5 5.2 -4.7 4.3 -5.4 3.1C-6.1 1.9 -6.2 0.4 -5.9 -1C-5.7 -2.5 -5.1 -3.9 -4 -4.8C-3 -5.8 -1.5 -6.2 -0.1 -6.2C1.4 -6.1 2.7 -5.5 3.8 -4.6Z" fill="#F06000"></path></g><g transform="translate(618 587)"><path d="M7.6 -9.2C9.6 -7.3 11 -4.7 11.6 -2C12.2 0.8 11.9 3.7 10.6 6.2C9.3 8.7 6.9 10.7 4.3 11.6C1.6 12.5 -1.4 12.4 -4.2 11.4C-6.9 10.4 -9.4 8.6 -10.8 6.2C-12.2 3.8 -12.6 0.7 -12 -2C-11.4 -4.8 -9.8 -7.2 -7.6 -9.2C-5.4 -11.1 -2.7 -12.5 0 -12.5C2.8 -12.5 5.5 -11.2 7.6 -9.2Z" fill="#F06000"></path></g><g transform="translate(759 496)"><path d="M5.6 -6.6C7.2 -5.4 8.4 -3.5 8.8 -1.5C9.2 0.5 8.9 2.7 7.8 4.4C6.7 6.2 4.9 7.4 3 8C1.1 8.6 -1 8.6 -3 8C-4.9 7.4 -6.6 6.1 -7.7 4.3C-8.8 2.6 -9.3 0.4 -8.9 -1.5C-8.5 -3.4 -7.1 -5.1 -5.4 -6.3C-3.8 -7.5 -1.9 -8.3 0.1 -8.3C2 -8.4 4 -7.8 5.6 -6.6Z" fill="#F06000"></path></g><g transform="translate(619 123)"><path d="M16.6 -19.9C21.2 -16 24.1 -10.4 25.1 -4.5C26 1.4 25 7.6 22 12.7C19 17.7 14.2 21.7 8.7 23.4C3.3 25.2 -2.8 24.8 -8.2 22.8C-13.6 20.7 -18.3 17 -21.5 12.1C-24.6 7.3 -26.1 1.2 -25.1 -4.3C-24 -9.9 -20.3 -14.9 -15.7 -18.8C-11.1 -22.6 -5.6 -25.4 0.3 -25.7C6.1 -26 12.1 -23.8 16.6 -19.9Z" fill="#F06000"></path></g><g transform="translate(258 6)"><path d="M2.8 -3.3C3.5 -2.7 4 -1.7 4.2 -0.7C4.3 0.3 4.2 1.3 3.7 2.1C3.2 3 2.4 3.6 1.4 3.9C0.5 4.2 -0.5 4.3 -1.5 4C-2.4 3.7 -3.1 3 -3.6 2.1C-4.1 1.3 -4.2 0.2 -4 -0.7C-3.9 -1.7 -3.5 -2.7 -2.7 -3.3C-2 -3.9 -1 -4.2 0 -4.2C1 -4.2 2 -3.9 2.8 -3.3Z" fill="#F06000"></path></g><g transform="translate(92 439)"><path d="M14 -16.6C17.7 -13.5 20.2 -8.7 20.8 -3.8C21.5 1.1 20.4 6.1 18 10.7C15.7 15.2 12.1 19.3 7.6 21C3.1 22.7 -2.4 22.1 -7.3 20.2C-12.2 18.3 -16.5 15.2 -18.9 10.9C-21.4 6.7 -21.9 1.4 -20.9 -3.6C-19.9 -8.5 -17.4 -13.1 -13.6 -16.2C-9.9 -19.3 -5 -20.9 0.1 -21C5.1 -21.1 10.2 -19.7 14 -16.6Z" fill="#F06000"></path></g><g transform="translate(108 341)"><path d="M10.2 -12.2C13 -9.9 14.8 -6.4 15.5 -2.7C16.2 1 15.8 4.9 14 8.2C12.3 11.5 9.2 14.2 5.7 15.3C2.2 16.5 -1.8 16.1 -5.3 14.8C-8.8 13.4 -11.9 11 -13.7 7.9C-15.5 4.8 -16.1 0.9 -15.4 -2.6C-14.6 -6.1 -12.5 -9.3 -9.8 -11.7C-7 -14 -3.5 -15.5 0.1 -15.7C3.7 -15.8 7.5 -14.6 10.2 -12.2Z" fill="#F06000"></path></g><g transform="translate(251 304)"><path d="M12.2 -14.7C15.8 -11.6 18.5 -7.7 19.4 -3.3C20.2 1 19.1 5.7 16.9 9.8C14.6 13.8 11 17.3 6.9 18.7C2.7 20.2 -2.1 19.7 -6.3 17.9C-10.5 16.2 -14.1 13.2 -16.4 9.4C-18.7 5.6 -19.8 0.9 -19.3 -3.7C-18.8 -8.3 -16.7 -12.9 -13.3 -16C-9.8 -19 -4.9 -20.6 -0.3 -20.3C4.3 -19.9 8.7 -17.7 12.2 -14.7Z" fill="#F06000"></path></g><g transform="translate(883 491)"><path d="M8.2 -9.6C10.5 -7.7 12.3 -5.1 12.8 -2.3C13.3 0.6 12.5 3.7 11 6.5C9.5 9.2 7.3 11.6 4.6 12.7C1.8 13.8 -1.5 13.6 -4.6 12.5C-7.6 11.4 -10.3 9.5 -11.8 6.8C-13.4 4.1 -13.9 0.8 -13.1 -2.1C-12.4 -5.1 -10.5 -7.6 -8.1 -9.4C-5.7 -11.2 -2.9 -12.3 0 -12.3C2.9 -12.3 5.8 -11.4 8.2 -9.6Z" fill="#F06000"></path></g><g transform="translate(116 196)"><path d="M10.1 -12C12.9 -9.8 14.7 -6.3 15.4 -2.7C16 0.9 15.5 4.8 13.8 8.1C12 11.4 9.1 14.1 5.6 15.4C2.1 16.7 -1.9 16.5 -5.4 15.1C-9 13.8 -12 11.2 -13.9 8C-15.9 4.7 -16.8 0.8 -16 -2.7C-15.2 -6.2 -12.7 -9.2 -9.8 -11.4C-6.9 -13.5 -3.4 -14.7 0.1 -14.9C3.7 -15.1 7.4 -14.1 10.1 -12Z" fill="#F06000"></path></g><g transform="translate(273 445)"><path d="M5.8 -7C7.4 -5.6 8.6 -3.7 8.9 -1.6C9.1 0.4 8.6 2.5 7.5 4.3C6.4 6.1 4.9 7.6 3 8.2C1.2 8.9 -1 8.7 -2.9 8C-4.8 7.3 -6.4 6 -7.5 4.3C-8.6 2.5 -9.1 0.4 -8.7 -1.5C-8.3 -3.4 -7 -5 -5.4 -6.4C-3.8 -7.8 -1.9 -8.9 0.1 -9C2.1 -9.1 4.2 -8.3 5.8 -7Z" fill="#F06000"></path></g><g transform="translate(709 195)"><path d="M9.1 -10.7C11.6 -8.7 13.4 -5.7 14 -2.4C14.6 0.8 14.1 4.3 12.4 7.1C10.7 9.8 7.8 11.8 4.7 12.8C1.6 13.8 -1.7 13.9 -4.6 12.8C-7.5 11.7 -10 9.4 -11.6 6.7C-13.3 3.9 -14.1 0.6 -13.6 -2.4C-13 -5.4 -11 -8.1 -8.5 -10.2C-6 -12.2 -3 -13.7 0.1 -13.8C3.3 -14 6.5 -12.8 9.1 -10.7Z" fill="#F06000"></path></g><g transform="translate(501 335)"><path d="M16.5 -19.7C21.1 -15.8 24.3 -10.3 25.1 -4.6C26 1.2 24.5 7.2 21.5 12.5C18.6 17.7 14.1 22.1 8.8 23.9C3.5 25.7 -2.6 24.9 -8 22.7C-13.4 20.4 -17.9 16.7 -21 11.9C-24 7.1 -25.4 1.2 -24.5 -4.4C-23.6 -10 -20.4 -15.2 -15.9 -19.1C-11.4 -23 -5.7 -25.6 0.1 -25.7C6 -25.9 11.9 -23.6 16.5 -19.7Z" fill="#F06000"></path></g><g transform="translate(508 151)"><path d="M14.2 -16.7C18.4 -13.4 21.9 -8.9 22.7 -4C23.5 0.8 21.6 6.1 18.9 10.9C16.1 15.7 12.5 20 7.7 22.1C3 24.3 -2.9 24.2 -8.1 22.3C-13.3 20.4 -17.8 16.6 -20.5 11.9C-23.2 7.1 -24.1 1.4 -23.1 -4C-22.1 -9.4 -19.1 -14.3 -14.9 -17.6C-10.8 -21 -5.4 -22.7 -0.2 -22.4C5 -22.2 10 -20 14.2 -16.7Z" fill="#F06000"></path></g><g transform="translate(52 278)"><path d="M8.1 -9.9C10.3 -7.9 11.7 -5.1 12.3 -2.1C12.9 0.9 12.8 4.1 11.4 6.6C9.9 9 7.2 10.8 4.4 11.6C1.5 12.4 -1.5 12.4 -4.2 11.5C-6.9 10.5 -9.4 8.7 -10.8 6.2C-12.2 3.8 -12.7 0.7 -12.2 -2.1C-11.6 -5 -10.1 -7.6 -8 -9.7C-5.8 -11.7 -2.9 -13.2 0.1 -13.2C3 -13.3 6 -12 8.1 -9.9Z" fill="#F06000"></path></g><g transform="translate(812 334)"><path d="M3.9 -4.5C5 -3.7 5.8 -2.4 6.1 -1C6.3 0.3 6.1 1.8 5.3 3.1C4.6 4.3 3.5 5.3 2.1 5.7C0.8 6.1 -0.7 6 -2.1 5.6C-3.4 5.1 -4.7 4.3 -5.4 3.1C-6.1 1.9 -6.3 0.4 -5.9 -1C-5.6 -2.3 -4.8 -3.5 -3.7 -4.4C-2.7 -5.2 -1.3 -5.7 0 -5.7C1.4 -5.8 2.8 -5.4 3.9 -4.5Z" fill="#F06000"></path></g><g transform="translate(889 291)"><path d="M17.5 -20.4C22.7 -16.4 27 -11 28 -4.9C29.1 1.1 27 7.7 23.6 13.6C20.2 19.5 15.5 24.7 9.8 26.8C4 28.8 -2.8 27.7 -9 25.2C-15.2 22.7 -20.7 18.9 -23.8 13.7C-27 8.4 -27.8 1.7 -26.8 -4.8C-25.8 -11.3 -22.8 -17.5 -18.1 -21.6C-13.3 -25.6 -6.6 -27.5 -0.3 -27.2C6.1 -26.9 12.3 -24.4 17.5 -20.4Z" fill="#F06000"></path></g><g transform="translate(325 111)"><path d="M14.4 -17.2C18.2 -14 20.3 -9 20.9 -4C21.4 1 20.2 6 17.7 10.2C15.3 14.5 11.6 18 7 19.9C2.5 21.8 -2.9 22.2 -7.5 20.5C-12.1 18.8 -16 15.1 -18.3 10.7C-20.7 6.3 -21.6 1.2 -21 -3.9C-20.3 -8.9 -18 -13.8 -14.2 -16.9C-10.5 -20 -5.2 -21.4 0 -21.4C5.3 -21.5 10.7 -20.3 14.4 -17.2Z" fill="#F06000"></path></g><g transform="translate(589 301)"><path d="M15.3 -18.6C19.3 -14.9 21.5 -9.5 22.4 -4.1C23.2 1.4 22.5 7 20 11.7C17.5 16.5 13.1 20.3 8.1 22.1C3.1 23.9 -2.7 23.6 -7.8 21.6C-12.8 19.6 -17.2 16 -19.7 11.4C-22.3 6.9 -23.1 1.3 -22.1 -3.8C-21.1 -8.9 -18.3 -13.7 -14.3 -17.4C-10.3 -21.1 -5.1 -23.9 0.3 -24.2C5.7 -24.5 11.3 -22.3 15.3 -18.6Z" fill="#F06000"></path></g><g transform="translate(885 572)"><path d="M16.8 -19.9C21.6 -16.1 24.9 -10.6 26.2 -4.5C27.4 1.6 26.5 8.2 23.3 13.3C20.1 18.3 14.7 21.9 8.8 24.1C2.9 26.2 -3.6 26.9 -9.3 25C-15 23.2 -20 18.8 -23 13.4C-25.9 8 -26.8 1.6 -25.5 -4.3C-24.3 -10.2 -20.9 -15.6 -16.3 -19.3C-11.7 -23.1 -5.8 -25.3 0.1 -25.4C6.1 -25.5 12.1 -23.6 16.8 -19.9Z" fill="#F06000"></path></g><g transform="translate(433 103)"><path d="M7.4 -8.9C9.6 -7 11.2 -4.6 11.7 -2.1C12.2 0.5 11.5 3.4 10 5.7C8.6 8.1 6.5 10 3.9 11.1C1.3 12.3 -1.7 12.7 -4.3 11.8C-7 10.9 -9.2 8.7 -10.6 6.2C-12 3.6 -12.6 0.6 -12 -2C-11.5 -4.7 -9.7 -7.1 -7.5 -9C-5.3 -10.9 -2.7 -12.2 0 -12.2C2.6 -12.1 5.3 -10.8 7.4 -8.9Z" fill="#F06000"></path></g><g transform="translate(224 577)"><path d="M13 -15.5C16.6 -12.4 19 -8.1 19.9 -3.5C20.7 1.1 19.8 6 17.4 9.8C14.9 13.6 10.9 16.3 6.6 17.7C2.3 19.2 -2.4 19.3 -6.5 17.8C-10.6 16.4 -14.1 13.3 -16.2 9.4C-18.3 5.6 -19 1.1 -18.3 -3.4C-17.7 -7.8 -15.8 -12.1 -12.5 -15.2C-9.2 -18.3 -4.6 -20.1 0 -20.2C4.7 -20.3 9.4 -18.5 13 -15.5Z" fill="#F06000"></path></g><g transform="translate(544 542)"><path d="M6.3 -7.6C8 -6.1 9.1 -4 9.4 -1.7C9.7 0.5 9.2 2.7 8.1 4.7C7 6.6 5.3 8.3 3.3 9C1.3 9.8 -1.1 9.6 -3.1 8.8C-5.2 8 -6.9 6.5 -8.1 4.6C-9.3 2.7 -10 0.4 -9.7 -1.7C-9.3 -3.8 -7.8 -5.7 -6.1 -7.1C-4.3 -8.6 -2.1 -9.5 0.1 -9.6C2.3 -9.7 4.6 -9 6.3 -7.6Z" fill="#F06000"></path></g><g transform="translate(824 15)"><path d="M6.2 -7.5C7.8 -6 8.7 -3.9 9 -1.7C9.4 0.5 9 2.8 8.1 4.8C7.1 6.8 5.4 8.5 3.4 9.3C1.3 10.1 -1.1 9.9 -3.3 9C-5.5 8.2 -7.4 6.8 -8.6 4.9C-9.8 3 -10.2 0.6 -9.7 -1.7C-9.3 -3.9 -8 -5.9 -6.2 -7.4C-4.4 -8.9 -2.2 -9.8 0 -9.8C2.3 -9.9 4.6 -9 6.2 -7.5Z" fill="#F06000"></path></g><g transform="translate(160 92)"><path d="M13.8 -16.7C17.5 -13.4 19.7 -8.6 20.6 -3.6C21.5 1.4 21 6.6 18.6 10.7C16.2 14.9 11.9 18 7.2 19.6C2.5 21.2 -2.6 21.3 -7.1 19.6C-11.7 18 -15.6 14.6 -18.2 10.4C-20.8 6.1 -22.1 1 -21.4 -3.9C-20.7 -8.8 -17.9 -13.5 -14 -16.8C-10.1 -20.1 -5.1 -22 0 -22C5.1 -22 10.2 -20.1 13.8 -16.7Z" fill="#F06000"></path></g><g transform="translate(528 2)"><path d="M16 -19C20.8 -15.1 24.5 -10.1 25.6 -4.4C26.7 1.2 25.1 7.4 22.1 12.8C19 18.2 14.5 22.9 9 25C3.5 27.1 -3 26.6 -8.5 24.2C-13.9 21.8 -18.3 17.5 -21.7 12.3C-25 7 -27.2 0.9 -26.3 -4.8C-25.5 -10.5 -21.6 -15.8 -16.7 -19.5C-11.8 -23.3 -5.9 -25.6 -0.1 -25.5C5.7 -25.3 11.3 -22.8 16 -19Z" fill="#F06000"></path></g><g transform="translate(719 118)"><path d="M15.8 -19.2C19.9 -15.3 22.3 -9.9 23.2 -4.2C24 1.4 23.2 7.2 20.7 12.2C18.1 17.2 13.7 21.5 8.5 23.4C3.2 25.4 -2.9 25.2 -8.4 23.2C-13.9 21.1 -18.7 17.4 -21.2 12.5C-23.7 7.6 -24 1.7 -22.7 -3.7C-21.4 -9.1 -18.6 -13.9 -14.5 -17.8C-10.5 -21.6 -5.3 -24.4 0.3 -24.8C5.8 -25.1 11.7 -23 15.8 -19.2Z" fill="#F06000"></path></g><g transform="translate(782 181)"><path d="M8.8 -10.7C11.2 -8.5 12.7 -5.5 13.3 -2.3C13.8 0.8 13.4 4.2 11.9 6.9C10.3 9.7 7.7 11.8 4.7 13C1.7 14.1 -1.8 14.3 -4.8 13.2C-7.8 12.1 -10.3 9.7 -11.8 6.9C-13.3 4.1 -13.7 0.8 -13.2 -2.4C-12.7 -5.5 -11.2 -8.5 -8.8 -10.7C-6.5 -12.9 -3.2 -14.2 0 -14.2C3.2 -14.2 6.4 -12.8 8.8 -10.7Z" fill="#F06000"></path></g><g transform="translate(2 78)"><path d="M3.8 -4.5C4.9 -3.6 5.6 -2.4 5.9 -1C6.1 0.3 5.9 1.8 5.2 3C4.5 4.2 3.4 5.2 2 5.7C0.7 6.2 -0.8 6.2 -2.1 5.8C-3.4 5.3 -4.6 4.3 -5.3 3.1C-6 1.8 -6.3 0.3 -6.1 -1.1C-5.8 -2.5 -5.1 -3.8 -4 -4.7C-2.9 -5.5 -1.4 -5.9 0 -5.8C1.4 -5.8 2.7 -5.3 3.8 -4.5Z" fill="#F06000"></path></g><g transform="translate(523 257)"><path d="M5.4 -6.4C7 -5.1 8.2 -3.4 8.7 -1.4C9.1 0.5 8.7 2.6 7.7 4.3C6.6 6 4.8 7.3 2.9 8C0.9 8.8 -1.2 9 -3.1 8.4C-5 7.8 -6.7 6.3 -7.8 4.5C-8.8 2.7 -9.2 0.5 -8.8 -1.5C-8.3 -3.4 -7 -5.1 -5.4 -6.4C-3.8 -7.8 -1.9 -8.8 0 -8.8C1.9 -8.8 3.8 -7.8 5.4 -6.4Z" fill="#F06000"></path></g></g></svg>