<svg id="visual" viewBox="0 0 900 600" width="900" height="600" xmlns="http://www.w3.org/2000/svg" xmlns:xlink="http://www.w3.org/1999/xlink" version="1.1"><rect x="0" y="0" width="900" height="600" fill="#303030"></rect><path d="M0 378L21.5 382.2C43 386.3 86 394.7 128.8 403.5C171.7 412.3 214.3 421.7 257.2 428.2C300 434.7 343 438.3 385.8 434.2C428.7 430 471.3 418 514.2 417.8C557 417.7 600 429.3 642.8 424.3C685.7 419.3 728.3 397.7 771.2 389C814 380.3 857 384.7 878.5 386.8L900 389L900 601L878.5 601C857 601 814 601 771.2 601C728.3 601 685.7 601 642.8 601C600 601 557 601 514.2 601C471.3 601 428.7 601 385.8 601C343 601 300 601 257.2 601C214.3 601 171.7 601 128.8 601C86 601 43 601 21.5 601L0 601Z" fill="#f06000"></path><path d="M0 445L21.5 439.7C43 434.3 86 423.7 128.8 417.8C171.7 412 214.3 411 257.2 408.3C300 405.7 343 401.3 385.8 403.8C428.7 406.3 471.3 415.7 514.2 425.3C557 435 600 445 642.8 448.2C685.7 451.3 728.3 447.7 771.2 449.5C814 451.3 857 458.7 878.5 462.3L900 466L900 601L878.5 601C857 601 814 601 771.2 601C728.3 601 685.7 601 642.8 601C600 601 557 601 514.2 601C471.3 601 428.7 601 385.8 601C343 601 300 601 257.2 601C214.3 601 171.7 601 128.8 601C86 601 43 601 21.5 601L0 601Z" fill="#c04e05"></path><path d="M0 461L21.5 458.3C43 455.7 86 450.3 128.8 451.8C171.7 453.3 214.3 461.7 257.2 466.8C300 472 343 474 385.8 478C428.7 482 471.3 488 514.2 493.8C557 499.7 600 505.3 642.8 501.8C685.7 498.3 728.3 485.7 771.2 485.5C814 485.3 857 497.7 878.5 503.8L900 510L900 601L878.5 601C857 601 814 601 771.2 601C728.3 601 685.7 601 642.8 601C600 601 557 601 514.2 601C471.3 601 428.7 601 385.8 601C343 601 300 601 257.2 601C214.3 601 171.7 601 128.8 601C86 601 43 601 21.5 601L0 601Z" fill="#933c07"></path><path d="M0 502L21.5 499.5C43 497 86 492 128.8 494.2C171.7 496.3 214.3 505.7 257.2 508C300 510.3 343 505.7 385.8 506.7C428.7 507.7 471.3 514.3 514.2 517.5C557 520.7 600 520.3 642.8 514.5C685.7 508.7 728.3 497.3 771.2 491.7C814 486 857 486 878.5 486L900 486L900 601L878.5 601C857 601 814 601 771.2 601C728.3 601 685.7 601 642.8 601C600 601 557 601 514.2 601C471.3 601 428.7 601 385.8 601C343 601 300 601 257.2 601C214.3 601 171.7 601 128.8 601C86 601 43 601 21.5 601L0 601Z" fill="#682b07"></path><path d="M0 546L21.5 547.5C43 549 86 552 128.8 554C171.7 556 214.3 557 257.2 553.7C300 550.3 343 542.7 385.8 537.5C428.7 532.3 471.3 529.7 514.2 535.8C557 542 600 557 642.8 557C685.7 557 728.3 542 771.2 535C814 528 857 529 878.5 529.5L900 530L900 601L878.5 601C857 601 814 601 771.2 601C728.3 601 685.7 601 642.8 601C600 601 557 601 514.2 601C471.3 601 428.7 601 385.8 601C343 601 300 601 257.2 601C214.3 601 171.7 601 128.8 601C86 601 43 601 21.5 601L0 601Z" fill="#401a00"></path></svg>