<svg id="visual" viewBox="0 0 900 600" width="900" height="600" xmlns="http://www.w3.org/2000/svg" xmlns:xlink="http://www.w3.org/1999/xlink" version="1.1"><rect x="0" y="0" width="900" height="600" fill="#333"></rect><path d="M0 450L21.5 451.8C43 453.7 86 457.3 128.8 460.3C171.7 463.3 214.3 465.7 257.2 460.3C300 455 343 442 385.8 437.7C428.7 433.3 471.3 437.7 514.2 444.3C557 451 600 460 642.8 457.7C685.7 455.3 728.3 441.7 771.2 434.5C814 427.3 857 426.7 878.5 426.3L900 426L900 601L878.5 601C857 601 814 601 771.2 601C728.3 601 685.7 601 642.8 601C600 601 557 601 514.2 601C471.3 601 428.7 601 385.8 601C343 601 300 601 257.2 601C214.3 601 171.7 601 128.8 601C86 601 43 601 21.5 601L0 601Z" fill="#f06000"></path><path d="M0 436L21.5 441.3C43 446.7 86 457.3 128.8 463.3C171.7 469.3 214.3 470.7 257.2 469.5C300 468.3 343 464.7 385.8 468.2C428.7 471.7 471.3 482.3 514.2 482.7C557 483 600 473 642.8 468.5C685.7 464 728.3 465 771.2 462.3C814 459.7 857 453.3 878.5 450.2L900 447L900 601L878.5 601C857 601 814 601 771.2 601C728.3 601 685.7 601 642.8 601C600 601 557 601 514.2 601C471.3 601 428.7 601 385.8 601C343 601 300 601 257.2 601C214.3 601 171.7 601 128.8 601C86 601 43 601 21.5 601L0 601Z" fill="#be4b08"></path><path d="M0 490L21.5 493.7C43 497.3 86 504.7 128.8 509.5C171.7 514.3 214.3 516.7 257.2 516.3C300 516 343 513 385.8 505.5C428.7 498 471.3 486 514.2 484.7C557 483.3 600 492.7 642.8 501.5C685.7 510.3 728.3 518.7 771.2 517.3C814 516 857 505 878.5 499.5L900 494L900 601L878.5 601C857 601 814 601 771.2 601C728.3 601 685.7 601 642.8 601C600 601 557 601 514.2 601C471.3 601 428.7 601 385.8 601C343 601 300 601 257.2 601C214.3 601 171.7 601 128.8 601C86 601 43 601 21.5 601L0 601Z" fill="#8e380b"></path><path d="M0 543L21.5 543.3C43 543.7 86 544.3 128.8 540.8C171.7 537.3 214.3 529.7 257.2 528C300 526.3 343 530.7 385.8 536C428.7 541.3 471.3 547.7 514.2 546.8C557 546 600 538 642.8 537.2C685.7 536.3 728.3 542.7 771.2 538.8C814 535 857 521 878.5 514L900 507L900 601L878.5 601C857 601 814 601 771.2 601C728.3 601 685.7 601 642.8 601C600 601 557 601 514.2 601C471.3 601 428.7 601 385.8 601C343 601 300 601 257.2 601C214.3 601 171.7 601 128.8 601C86 601 43 601 21.5 601L0 601Z" fill="#602609"></path><path d="M0 561L21.5 558.2C43 555.3 86 549.7 128.8 548.7C171.7 547.7 214.3 551.3 257.2 551C300 550.7 343 546.3 385.8 543.8C428.7 541.3 471.3 540.7 514.2 545.7C557 550.7 600 561.3 642.8 564.8C685.7 568.3 728.3 564.7 771.2 565C814 565.3 857 569.7 878.5 571.8L900 574L900 601L878.5 601C857 601 814 601 771.2 601C728.3 601 685.7 601 642.8 601C600 601 557 601 514.2 601C471.3 601 428.7 601 385.8 601C343 601 300 601 257.2 601C214.3 601 171.7 601 128.8 601C86 601 43 601 21.5 601L0 601Z" fill="#361500"></path></svg>