<svg id="visual" viewBox="0 0 900 600" width="900" height="600" xmlns="http://www.w3.org/2000/svg" xmlns:xlink="http://www.w3.org/1999/xlink" version="1.1"><path d="M0 85L13.7 83C27.3 81 54.7 77 82 73C109.3 69 136.7 65 163.8 65C191 65 218 69 245.2 78C272.3 87 299.7 101 327 106C354.3 111 381.7 107 409 96C436.3 85 463.7 67 491 66C518.3 65 545.7 81 573 86C600.3 91 627.7 85 654.8 79C682 73 709 67 736.2 68C763.3 69 790.7 77 818 84C845.3 91 872.7 97 886.3 100L900 103L900 0L886.3 0C872.7 0 845.3 0 818 0C790.7 0 763.3 0 736.2 0C709 0 682 0 654.8 0C627.7 0 600.3 0 573 0C545.7 0 518.3 0 491 0C463.7 0 436.3 0 409 0C381.7 0 354.3 0 327 0C299.7 0 272.3 0 245.2 0C218 0 191 0 163.8 0C136.7 0 109.3 0 82 0C54.7 0 27.3 0 13.7 0L0 0Z" fill="#af4608"></path><path d="M0 223L13.7 211C27.3 199 54.7 175 82 174C109.3 173 136.7 195 163.8 207C191 219 218 221 245.2 212C272.3 203 299.7 183 327 185C354.3 187 381.7 211 409 210C436.3 209 463.7 183 491 169C518.3 155 545.7 153 573 154C600.3 155 627.7 159 654.8 158C682 157 709 151 736.2 150C763.3 149 790.7 153 818 161C845.3 169 872.7 181 886.3 187L900 193L900 101L886.3 98C872.7 95 845.3 89 818 82C790.7 75 763.3 67 736.2 66C709 65 682 71 654.8 77C627.7 83 600.3 89 573 84C545.7 79 518.3 63 491 64C463.7 65 436.3 83 409 94C381.7 105 354.3 109 327 104C299.7 99 272.3 85 245.2 76C218 67 191 63 163.8 63C136.7 63 109.3 67 82 71C54.7 75 27.3 79 13.7 81L0 83Z" fill="#cf5305"></path><path d="M0 319L13.7 311C27.3 303 54.7 287 82 304C109.3 321 136.7 371 163.8 381C191 391 218 361 245.2 349C272.3 337 299.7 343 327 359C354.3 375 381.7 401 409 398C436.3 395 463.7 363 491 355C518.3 347 545.7 363 573 369C600.3 375 627.7 371 654.8 358C682 345 709 323 736.2 327C763.3 331 790.7 361 818 385C845.3 409 872.7 427 886.3 436L900 445L900 191L886.3 185C872.7 179 845.3 167 818 159C790.7 151 763.3 147 736.2 148C709 149 682 155 654.8 156C627.7 157 600.3 153 573 152C545.7 151 518.3 153 491 167C463.7 181 436.3 207 409 208C381.7 209 354.3 185 327 183C299.7 181 272.3 201 245.2 210C218 219 191 217 163.8 205C136.7 193 109.3 171 82 172C54.7 173 27.3 197 13.7 209L0 221Z" fill="#f06000"></path><path d="M0 409L13.7 402C27.3 395 54.7 381 82 400C109.3 419 136.7 471 163.8 481C191 491 218 459 245.2 440C272.3 421 299.7 415 327 430C354.3 445 381.7 481 409 479C436.3 477 463.7 437 491 431C518.3 425 545.7 453 573 464C600.3 475 627.7 469 654.8 454C682 439 709 415 736.2 420C763.3 425 790.7 459 818 479C845.3 499 872.7 505 886.3 508L900 511L900 443L886.3 434C872.7 425 845.3 407 818 383C790.7 359 763.3 329 736.2 325C709 321 682 343 654.8 356C627.7 369 600.3 373 573 367C545.7 361 518.3 345 491 353C463.7 361 436.3 393 409 396C381.7 399 354.3 373 327 357C299.7 341 272.3 335 245.2 347C218 359 191 389 163.8 379C136.7 369 109.3 319 82 302C54.7 285 27.3 301 13.7 309L0 317Z" fill="#f57a2f"></path><path d="M0 601L13.7 601C27.3 601 54.7 601 82 601C109.3 601 136.7 601 163.8 601C191 601 218 601 245.2 601C272.3 601 299.7 601 327 601C354.3 601 381.7 601 409 601C436.3 601 463.7 601 491 601C518.3 601 545.7 601 573 601C600.3 601 627.7 601 654.8 601C682 601 709 601 736.2 601C763.3 601 790.7 601 818 601C845.3 601 872.7 601 886.3 601L900 601L900 509L886.3 506C872.7 503 845.3 497 818 477C790.7 457 763.3 423 736.2 418C709 413 682 437 654.8 452C627.7 467 600.3 473 573 462C545.7 451 518.3 423 491 429C463.7 435 436.3 475 409 477C381.7 479 354.3 443 327 428C299.7 413 272.3 419 245.2 438C218 457 191 489 163.8 479C136.7 469 109.3 417 82 398C54.7 379 27.3 393 13.7 400L0 407Z" fill="#fa9150"></path></svg>